<svg width="142" height="135" viewBox="0 0 142 135" fill="none" xmlns="http://www.w3.org/2000/svg">
<path fill-rule="evenodd" clip-rule="evenodd" d="M98.3642 0.391849C97.0789 0.807922 97.029 0.918185 96.9029 3.60758C96.825 5.26756 96.9903 6.80092 97.3126 7.40306C97.7351 8.19386 97.7403 8.59313 97.3354 9.24222C96.6611 10.3233 96.6723 14.1377 97.356 16.045C97.7863 17.2454 97.7863 17.5818 97.356 17.7265C96.6564 17.9621 96.6318 22.9855 97.3229 24.5034C97.7089 25.3515 97.7089 25.7309 97.3229 26.1173C96.6525 26.7883 96.674 31.8303 97.3522 32.917C97.7769 33.598 97.7769 33.9468 97.3522 34.6278C96.6762 35.7111 96.6585 39.8416 97.3229 41.3013C97.7089 42.1494 97.7089 42.5289 97.3229 42.9152C96.7058 43.5329 96.6426 49.1189 97.2485 49.4936C97.4851 49.64 97.6788 50.15 97.6788 50.6264C97.6788 51.1032 97.9692 51.7841 98.3242 52.1395C98.6792 52.4948 98.9697 52.9656 98.9697 53.1853C98.9697 53.4144 96.1077 53.5854 92.2746 53.5854H85.5799L83.9749 52.2945C82.6117 51.1979 81.6444 50.8908 77.5458 50.2542L72.7212 49.5052V43.5622V37.6191L74.7798 36.7043C76.0887 36.1228 77.3809 35.0822 78.3298 33.8456L79.8212 31.9018L79.9443 23.6842C80.0183 18.721 79.8974 15.2111 79.6379 14.8209C79.2898 14.2967 77.788 14.1494 71.685 14.0395C66.786 13.9517 63.8531 14.0697 63.2778 14.3777C62.4335 14.8299 62.3939 15.2201 62.3939 23.1186V31.3858L63.7924 33.4433C64.5614 34.5753 65.5295 35.6098 65.9439 35.7425C66.3583 35.8756 66.697 36.1495 66.697 36.3515C66.697 36.5536 67.2779 36.8469 67.9879 37.0028L69.2788 37.2866V43.4976V49.7089H68.0158C66.1673 49.7089 60.6792 50.9171 59.0462 51.6833C58.2703 52.0477 57.4127 52.7024 57.1408 53.1379C56.8688 53.5738 56.439 53.8688 56.1855 53.7939C55.9316 53.7189 55.2139 53.5462 54.5904 53.4101C53.5452 53.1827 53.457 52.991 53.457 50.9537C53.457 48.347 53 47.9103 50.453 48.0834C48.7951 48.1958 48.4207 47.9835 48.5735 47.0161C48.6965 46.2387 47.3746 38.5521 46.9917 37.816C46.7584 37.3689 46.2124 36.2762 45.7769 35.3876C45.3419 34.499 44.8367 33.7724 44.6538 33.7724C44.4709 33.7724 44.3212 33.5751 44.3212 33.3339C44.3212 32.9024 42.4206 30.9357 40.374 29.2499C39.7987 28.7761 38.5637 28.0279 37.6291 27.5869C36.6949 27.1463 35.5873 26.6087 35.1678 26.3929C34.7487 26.1771 33.5382 25.8817 32.4784 25.7361L30.5515 25.4716V21.5245C30.5515 17.3604 30.2314 16.5437 28.5984 16.5437C27.2244 16.5437 26.6125 18.3588 26.7222 22.1103L26.8173 25.3696L24.6262 25.802C23.421 26.0402 22.2927 26.3804 22.1184 26.5579C21.9446 26.7354 21.4472 26.8809 21.013 26.8809C20.5792 26.8809 20.2242 27.0537 20.2242 27.2651C20.2242 27.4762 19.7401 27.7708 19.1485 27.9194C18.5568 28.068 18.0727 28.3798 18.0727 28.612C18.0727 28.8446 17.8016 29.0345 17.4703 29.0345C16.6523 29.0345 12.8957 33.2146 11.8333 35.3075C11.36 36.24 10.8565 37.0997 10.7141 37.2181C10.5717 37.3366 10.3432 37.9181 10.2064 38.5103C10.0691 39.1025 9.75454 40.3624 9.50668 41.31C9.25926 42.2575 9.05228 44.1475 9.04669 45.5094L9.03636 47.9861H7.5019C4.86629 47.9861 4.30303 48.5576 4.30303 51.2315C4.30303 53.5712 4.29485 53.5854 2.98372 53.5854C0.108435 53.5854 0 53.8343 0 60.4398V66.4022L1.25562 66.923C1.94669 67.2094 3.1567 67.3985 3.94502 67.3434C4.73376 67.2882 6.20196 67.2714 7.20757 67.3059L9.03636 67.3683V92.9292C9.03636 117.145 9.07767 118.528 9.82339 119.203C10.4413 119.763 11.5033 119.916 14.7719 119.916H18.9333V126.496C18.9333 134.813 19.0228 134.991 23.2295 134.991C25.8853 134.991 26.2739 134.879 27.048 133.894C27.5222 133.29 28.0317 132.176 28.1801 131.417C28.3286 130.658 28.6022 129.65 28.7881 129.176C29.6354 127.018 30.5515 123.812 30.5515 123.006C30.5515 122.519 30.7451 122 30.9818 121.854C31.2185 121.708 31.4121 121.212 31.4121 120.752C31.4121 119.93 32.0993 119.916 70.9307 119.916H110.45L110.949 121.013C111.224 121.616 111.448 122.477 111.448 122.926C111.448 123.374 111.62 123.848 111.83 123.977C112.04 124.107 112.343 124.918 112.505 125.779C112.666 126.64 112.958 127.659 113.152 128.045C113.347 128.43 113.842 129.905 114.252 131.321C114.662 132.738 115.312 134.137 115.697 134.43C116.84 135.301 121.476 135.137 122.57 134.187C123.445 133.427 123.497 133.006 123.497 126.649V119.916L127.477 119.902C130.103 119.893 131.714 119.694 132.211 119.316C132.913 118.783 132.964 117.016 132.964 93.0563C132.964 72.8178 133.078 67.3584 133.501 67.3223C133.798 67.2968 135.425 67.3132 137.119 67.3584C142.062 67.4911 142 67.5807 142 60.2925C142 55.0507 141.896 54.0682 141.319 53.8468C140.945 53.703 137.169 53.5854 132.928 53.5854C128.688 53.5854 125.218 53.5044 125.218 53.4058C125.218 53.3071 125.605 52.3217 126.079 51.2164C127.091 48.8531 127.312 43.0259 126.401 42.6917C125.971 42.5341 125.971 42.3803 126.401 41.9237C127.074 41.21 127.132 34.9987 126.472 34.3379C126.135 34.0007 126.135 33.7888 126.472 33.5803C126.747 33.4097 126.939 31.8329 126.939 29.7413C126.939 27.7596 126.733 25.9851 126.472 25.7236C126.135 25.3864 126.135 25.1744 126.472 24.966C127.124 24.5624 127.082 18.1507 126.423 17.4913C126.022 17.0895 126.022 16.8594 126.423 16.4576C127.056 15.8244 127.129 9.38953 126.508 9.00533C126.219 8.82701 126.219 8.47081 126.508 7.93155C126.745 7.48791 126.939 5.67115 126.939 3.89487C126.939 0.926799 126.861 0.639512 125.971 0.347916C124.476 -0.141809 99.8935 -0.103045 98.3642 0.391849ZM100.893 4.07362C100.495 4.7184 101.09 7.64211 101.699 8.02932C101.973 8.20419 106.792 8.34978 112.408 8.35365L122.62 8.36011L122.859 7.391C122.99 6.8582 123.139 5.84042 123.19 5.12973L123.282 3.83758L112.231 3.72258C104.656 3.64376 101.091 3.75446 100.893 4.07362ZM100.899 14.2825C101.068 15.4075 101.428 16.4727 101.701 16.6493C101.974 16.8259 106.74 16.9228 112.291 16.8646L122.386 16.7591L122.993 15.1603C124.131 12.1672 124.396 12.2366 111.843 12.2366H100.593L100.899 14.2825ZM65.8363 24.0813C65.8363 27.5162 66.0089 30.3267 66.2202 30.3267C66.431 30.3267 66.7133 30.7647 66.8476 31.3001C67.1789 32.6211 69.2628 33.7724 71.3231 33.7724C72.6838 33.7724 73.3305 33.4701 74.5917 32.2442L76.1636 30.716V24.276V17.8359H71H65.8363V24.0813ZM100.87 22.6599C101.029 23.6553 101.368 24.7213 101.623 25.0289C101.98 25.4591 104.416 25.5888 112.131 25.5888C123.328 25.5888 122.67 25.7736 123.292 22.4583L123.593 20.8509H112.087H100.581L100.87 22.6599ZM24.3121 29.7198C20.9949 30.9228 19.6894 31.7179 17.7061 33.7414C16.6058 34.8638 15.506 36.0569 15.2616 36.3925C14.1355 37.9396 13.2791 41.2768 13.2043 44.4115L13.1242 47.7707L28.7227 47.8836L44.3212 47.9968V44.5399C44.3212 42.6387 44.137 40.7461 43.9116 40.3348C43.6865 39.9235 43.1731 38.8118 42.7712 37.8642C42.3689 36.9166 40.908 35.0443 39.5246 33.7031C35.2775 29.5858 29.1233 27.9741 24.3121 29.7198ZM100.899 31.0804C101.067 32.2055 101.294 33.2719 101.403 33.4494C101.513 33.6268 106.31 33.7724 112.063 33.7724H122.524L123.057 31.8682C123.35 30.8207 123.461 29.7547 123.303 29.4993C123.109 29.1861 119.362 29.0345 111.804 29.0345H100.593L100.899 31.0804ZM100.898 39.6874C101.067 40.8168 101.428 41.8832 101.701 42.0573C101.974 42.2313 106.675 42.3764 112.149 42.3803C119.655 42.385 122.212 42.2528 122.552 41.8419C122.801 41.5421 123.067 40.5248 123.143 39.5806L123.282 37.8642L111.936 37.7492L100.591 37.6342L100.898 39.6874ZM111.717 46.1628L100.583 46.2778L100.864 48.036C101.17 49.9514 101.974 51.2367 103.678 52.5331C104.668 53.286 105.514 53.37 112.094 53.37C118.74 53.37 119.514 53.2912 120.556 52.5086C121.187 52.0348 121.985 51.1626 122.33 50.5704C123.089 49.2644 123.653 46.3847 123.188 46.1891C123.003 46.1116 117.841 46.0995 111.717 46.1628ZM7.82721 52.6163C7.96276 53.3201 9.36425 53.3773 28.9439 53.482C49.6983 53.5923 49.9151 53.5845 49.9151 52.7283C49.9151 51.8729 49.6617 51.8625 28.7989 51.8625C8.91975 51.8625 7.6908 51.9069 7.82721 52.6163ZM3.87273 60.4769V63.4919H22.8061C33.2194 63.4919 41.7394 63.3988 41.7394 63.2851C41.7394 63.171 40.5195 61.8142 39.0289 60.2701L36.3184 57.4618H20.0956H3.87273V60.4769ZM41.7394 57.6346C41.7394 57.7297 43.6271 59.7438 45.9348 62.1101C48.2425 64.4765 51.651 68.0329 53.509 70.0129C60.2334 77.1788 65.9956 82.8741 66.5197 82.8741C66.8144 82.8741 67.1281 83.0917 67.2163 83.357C67.3157 83.6555 68.6867 83.8545 70.802 83.8781C75.2927 83.9285 76.0096 83.4543 83.6939 75.3487C93.0651 65.4633 94.5354 63.9265 97.8173 60.5845L100.885 57.4618H71.312C55.0469 57.4618 41.7394 57.5398 41.7394 57.6346ZM103.488 59.9174C102.305 61.2168 101.181 62.5529 100.992 62.8859C100.699 63.4027 103.437 63.4919 119.603 63.4919H138.558V60.4769V57.4618L122.098 57.5084L105.639 57.5549L103.488 59.9174ZM13.0653 67.5837C12.9749 67.8206 12.9508 78.7716 13.0124 91.9192L13.1242 115.824L71.3227 115.933L129.521 116.042V91.7155V67.3886L113.353 67.271C104.461 67.206 96.8982 67.3141 96.5471 67.5113C95.9554 67.843 90.2255 73.6482 87.5473 76.6287C82.4065 82.3504 78.7725 85.6915 76.5991 86.6942C73.963 87.9101 69.1105 88.4773 68.2981 87.6641C68.033 87.3988 67.4151 87.1813 66.9259 87.1813C65.5954 87.1813 62.9791 85.2306 59.828 81.8891C58.2811 80.2481 54.401 76.2751 51.206 73.0603L45.397 67.2146L29.3135 67.1836C18.9596 67.1637 13.1716 67.3063 13.0653 67.5837ZM22.8061 125.766C22.8061 130.255 22.9313 131.575 23.3439 131.439C24.06 131.202 24.751 129.725 25.6112 126.592C26.0015 125.171 26.5949 123.277 26.9301 122.384C27.2653 121.491 27.5394 120.57 27.5394 120.338C27.5394 120.106 26.4744 119.916 25.1727 119.916H22.8061V125.766ZM114.891 120.542C114.891 120.886 115.072 121.613 115.292 122.157C115.513 122.701 116.022 124.309 116.424 125.73C117.465 129.413 118.434 131.583 118.957 131.409C119.234 131.317 119.456 129.062 119.529 125.587L119.649 119.916H117.27C115.477 119.916 114.891 120.07 114.891 120.542Z" fill="#058FA2"/>
</svg>
