<svg width="100" height="84" viewBox="0 0 100 84" fill="none" xmlns="http://www.w3.org/2000/svg">
<path fill-rule="evenodd" clip-rule="evenodd" d="M4.83118 0.301113C2.77002 0.919187 0.909553 2.83025 0.300407 4.95536C0.115163 5.60123 0 17.2631 0 35.3655V64.7279L0.803652 66.3418C1.66257 68.066 2.90495 69.181 4.59993 69.7488C5.32764 69.9925 10.2863 70.1003 20.7678 70.1003C35.8464 70.1003 35.8856 70.1018 35.7207 70.7322C35.63 71.0797 34.8843 73.5767 34.064 76.2816L32.5722 81.1991L28.75 81.2868C25.2945 81.3662 24.8876 81.435 24.5088 82.0065C24.1519 82.5452 24.1602 82.7391 24.5665 83.3192L25.0429 84H50.0161H74.9892L75.4656 83.3192C75.8719 82.7391 75.8802 82.5452 75.5233 82.0065C75.1445 81.435 74.7376 81.3662 71.2821 81.2868L67.4599 81.1991L65.9681 76.2816C65.1478 73.5767 64.4022 71.0797 64.3114 70.7322C64.1465 70.1018 64.1867 70.1003 79.3875 70.0935C93.4658 70.0873 94.7233 70.0437 95.8641 69.5239C97.7348 68.6717 99.2896 66.7653 99.7138 64.8036C99.9741 63.5989 100.045 55.2751 99.9744 34.1154L99.8777 5.08046L99.192 3.79767C98.3501 2.22237 96.6817 0.805831 95.1163 0.336329C93.6986 -0.0883843 6.2446 -0.122674 4.83118 0.301113ZM4.72343 3.36925C2.68697 4.61127 2.77867 3.38655 2.77867 29.3123V52.8028H50.0161H97.2534V29.4516C97.2534 3.59875 97.3297 4.602 95.2713 3.34639C94.3525 2.78577 92.8193 2.766 50.0161 2.766C6.61786 2.766 5.69164 2.77836 4.72343 3.36925ZM20.9944 7.2831C15.3599 8.36172 11.1801 11.9877 9.57375 17.1902C6.8133 26.1317 13.5732 35.1965 23.0012 35.1965C29.9396 35.1965 35.6324 30.3029 36.8297 23.3089C37.915 16.9721 33.9742 10.3901 27.7018 8.06179C25.9275 7.40325 22.4662 7.0014 20.9944 7.2831ZM51.3128 7.76774C51.0429 8.0377 50.9423 10.4158 50.9423 16.5332C50.9423 23.6937 51.0117 24.9855 51.415 25.3203C51.7808 25.6239 55.5691 25.7342 68.1642 25.8074C86.3888 25.9137 88.4759 25.8287 88.9394 24.9623C89.3518 24.1913 88.8208 23.2233 87.9146 23.0945C87.22 22.9957 87.2194 22.9904 87.136 16.0702C87.0823 11.596 86.9322 8.99925 86.7124 8.73423C86.2938 8.22952 80.2381 8.15508 79.3261 8.64342C78.7623 8.94551 78.729 9.35972 78.729 16.0566V23.1501H77.3396H75.9503V18.7331C75.9503 15.7094 75.8333 14.199 75.5798 13.9454C75.3362 13.7017 74.0361 13.5747 71.7823 13.5747C69.5285 13.5747 68.2284 13.7017 67.9848 13.9454C67.7313 14.199 67.6143 15.7094 67.6143 18.7331V23.1501H66.225H64.8356V20.4319C64.8356 18.7297 64.6973 17.5754 64.4651 17.3431C64.2191 17.0969 62.8757 16.9724 60.4623 16.9724C56.1378 16.9724 56.1909 16.9267 56.1909 20.6587V23.1501H54.9559H53.721V15.6442C53.721 7.76249 53.6595 7.39708 52.3316 7.39708C51.975 7.39708 51.5165 7.56387 51.3128 7.76774ZM20.0463 10.2904C16.8776 11.1454 14.1777 13.4737 12.7001 16.6265C11.9977 18.1252 11.8875 18.7637 11.893 21.2968C11.8983 23.6981 12.0307 24.524 12.6216 25.8432C13.8612 28.6105 13.7791 28.6321 17.9172 24.4514L21.6119 20.7186V15.2934C21.6119 12.3095 21.577 9.87741 21.5347 9.88884C21.4924 9.90057 20.8224 10.0813 20.0463 10.2904ZM24.3905 15.8219V21.7107L20.2086 25.9331C15.643 30.5429 15.7532 30.2331 18.2157 31.5282C19.4198 32.1618 20.037 32.2594 22.8468 32.2606C25.7793 32.2621 26.2578 32.1791 27.8605 31.3917C30.1254 30.2788 32.1446 28.2547 33.2351 26.0036C33.9856 24.4542 34.0952 23.8621 34.1048 21.2968C34.1143 18.751 34.0072 18.1301 33.2946 16.6095C31.7871 13.3922 28.792 10.9264 25.4853 10.1801L24.3905 9.93331V15.8219ZM81.5076 17.1269V23.1501H83.0514H84.5951V17.1269V11.1037H83.0514H81.5076V17.1269ZM70.2124 16.4662C70.1166 16.7161 70.0833 18.2874 70.1383 19.9581L70.2386 22.9957H71.7289H73.2192L73.2207 19.5979L73.222 16.2002L71.8045 16.106C70.7767 16.0378 70.3386 16.1366 70.2124 16.4662ZM59.1755 19.6495C59.0622 19.7626 58.9695 20.5966 58.9695 21.5028V23.1501H60.5133H62.057V21.2968V19.4435H60.7192C59.9831 19.4435 59.2885 19.5362 59.1755 19.6495ZM51.4273 30.1219C51.0105 30.5392 50.9423 31.7735 50.9423 38.9031C50.9423 46.0327 51.0105 47.267 51.4273 47.6843C51.8574 48.1143 53.9738 48.1696 70.0583 48.1696C87.2456 48.1696 88.2311 48.1396 88.7152 47.6046C89.37 46.8809 89.3589 46.5325 88.6615 45.9009C88.1505 45.4381 86.4694 45.3897 70.9089 45.3897H53.721V43.8931V42.3969L56.1137 40.4991C57.4295 39.4554 58.6695 38.5998 58.8686 38.5979C59.068 38.5958 59.6238 38.9235 60.1036 39.326C62.1826 41.0687 63.3787 41.6831 64.6936 41.6831C66.0897 41.6831 65.7236 41.9135 72.0395 37.0563C73.3695 36.0333 74.569 35.1965 74.7055 35.1965C74.8416 35.1965 75.7549 35.8566 76.7345 36.6637C78.3486 37.9931 78.6651 38.1309 80.105 38.1309C81.6336 38.1309 81.8179 38.0321 84.9199 35.5545C86.6942 34.1374 88.2465 32.7094 88.3697 32.3811C88.6655 31.5943 87.6118 30.4932 86.8405 30.7832C86.5395 30.8963 85.027 32.0051 83.4793 33.2472C81.9315 34.4892 80.4175 35.5054 80.1149 35.5054C79.812 35.5054 78.9945 35.0405 78.2977 34.4722C76.5239 33.026 75.8617 32.7255 74.4458 32.7255C73.163 32.7255 73.1865 32.7103 66.5837 37.8177C65.5923 38.5847 64.6674 39.212 64.5281 39.212C64.3889 39.212 63.4938 38.5757 62.5398 37.7979C61.5855 37.0202 60.3774 36.2612 59.8553 36.1114C58.5805 35.7457 56.9417 36.3369 55.1427 37.8118L53.721 38.9776V34.7925C53.721 31.3997 53.6292 30.5154 53.2359 30.1219C52.9689 29.855 52.5619 29.6366 52.3316 29.6366C52.1013 29.6366 51.6944 29.855 51.4273 30.1219ZM9.43852 39.3884C8.86087 39.9666 8.81116 40.7993 9.32398 41.3124C9.85069 41.8394 24.7283 41.8394 25.255 41.3124C25.8293 40.7379 25.6944 39.9129 24.9392 39.3841C23.912 38.664 10.1588 38.6681 9.43852 39.3884ZM9.49379 45.7232C8.87353 46.0846 8.77813 47.2528 9.32398 47.7989C9.85748 48.3327 38.6149 48.3327 39.1484 47.7989C39.3521 47.5951 39.5189 47.1364 39.5189 46.7796C39.5189 46.4229 39.3521 45.9642 39.1484 45.7603C38.6655 45.2772 10.32 45.242 9.49379 45.7232ZM2.83424 60.3949L2.93304 65.2073L4.08619 66.2636L5.23964 67.3203L49.7799 67.3157C84.5151 67.3123 94.4837 67.2273 95.0626 66.9296C95.4708 66.7199 96.096 66.1562 96.452 65.6774C97.0284 64.9015 97.1099 64.3035 97.1985 60.1947L97.2979 55.5828H50.0167H2.73514L2.83424 60.3949ZM38.6013 70.8496C38.2314 71.8229 35.5052 80.7919 35.5052 81.0357C35.5052 81.137 42.0351 81.2201 50.0161 81.2201C57.997 81.2201 64.525 81.116 64.5226 80.9884C64.5204 80.8608 63.7865 78.3938 62.8918 75.5057L61.2654 70.2547L50.0772 70.1738L38.889 70.0926L38.6013 70.8496Z" fill="#249DAE"/>
</svg>
