<svg width="114" height="104" viewBox="0 0 114 104" fill="none" xmlns="http://www.w3.org/2000/svg">
<path fill-rule="evenodd" clip-rule="evenodd" d="M54.3295 0.271708C46.3618 1.34032 39.9855 6.57265 38.9588 12.884C38.7285 14.301 38.8507 14.9737 39.4239 15.4418C40.8423 16.5989 41.9556 15.903 42.3538 13.6105C43.5505 6.71945 51.8174 2.40102 61.3132 3.70638C65.2221 4.24365 70.0084 6.63443 71.801 8.94415C72.509 9.85657 73.3532 11.7605 73.6775 13.1756C74.301 15.898 75.3122 16.637 76.7774 15.4418C78.0998 14.3623 76.7699 9.54123 74.3282 6.56524C72.6975 4.57827 68.5925 2.0926 65.4846 1.20983C61.1095 -0.0327613 58.3385 -0.265562 54.3295 0.271708ZM54.5809 10.4986C52.0573 11.1535 49.1434 12.8474 47.3076 14.7256C46.3492 15.7062 44.7387 16.7269 43.728 16.9948C38.6435 18.3402 36.2084 23.8103 38.6676 28.3595C39.7361 30.3361 42.4031 32.3058 44.0121 32.3058C44.6844 32.3058 45.7227 33.0546 46.6901 34.2379C47.6078 35.3604 49.5723 36.8101 51.38 37.6978C57.3238 40.6174 64.313 39.4564 68.7363 34.8137C69.8531 33.6413 71.4405 32.5766 72.4909 32.2954C76.1801 31.3078 78.4649 28.2963 78.4649 24.4217C78.4649 20.7349 76.1992 17.9809 72.3229 16.9548C71.1448 16.6429 69.7238 15.7443 68.8344 14.7488C65.8295 11.3849 59.0057 9.34995 54.5809 10.4986ZM54.4376 14.1449C53.529 14.431 51.7928 15.5244 50.579 16.5747C44.968 21.4294 45.6212 30.0653 51.9089 34.1548C53.7709 35.3663 54.4668 35.5185 58.1464 35.5185C61.9412 35.5185 62.4686 35.3935 64.4462 34.0273C67.35 32.0211 69.4181 28.1351 69.403 24.7118C69.3704 17.195 61.7763 11.8332 54.4376 14.1449ZM42.2985 21.7457C41.7253 22.4619 41.2562 23.747 41.2562 24.6011C41.2562 26.0745 42.4192 28.3526 43.1704 28.3506C43.362 28.3501 43.5189 26.5703 43.5189 24.396C43.5189 22.2217 43.4786 20.4428 43.4299 20.4428C43.3806 20.4433 42.8712 21.0295 42.2985 21.7457ZM72.6784 24.3609C72.6804 26.5535 72.8393 28.3482 73.0309 28.3492C73.223 28.3506 73.7318 27.8574 74.1622 27.2529C75.2971 25.6608 75.1412 23.1939 73.8098 21.6721L72.6744 20.3746L72.6784 24.3609ZM9.90078 24.3471C7.79749 25.7103 6.56809 27.8252 6.56759 30.0816C6.56709 32.5692 11.7049 52.1625 12.7809 53.7773C13.2209 54.4367 14.399 55.5903 15.3996 56.3406C18.054 58.3305 21.6351 58.4709 27.7811 56.825C30.4274 56.1162 32.9068 55.5364 33.2905 55.5364C33.8235 55.5364 34.3751 58.4333 35.6201 67.7696C36.5171 74.4981 37.2472 80.281 37.2421 80.6206C37.2356 81.1005 33.9472 81.2384 22.501 81.2384C11.7124 81.2384 7.60692 81.3971 7.16494 81.8315C6.82352 82.1671 6.56155 83.7755 6.56155 85.5386V88.6524H3.89661C2.43089 88.6524 0.960136 88.9193 0.628274 89.2456C-0.209425 90.069 -0.209425 102.558 0.628274 103.382C1.39105 104.131 111.96 104.237 113.159 103.489C113.739 103.128 113.865 102.301 113.705 99.9139C113.396 95.3177 113.45 92.488 113.87 91.321C114.46 89.679 113.012 88.6524 110.107 88.6524H107.628V85.5386C107.628 83.7755 107.366 82.1671 107.025 81.8315C106.653 81.4663 104.833 81.2384 102.291 81.2384H98.1599L97.9829 70.4881C97.7405 55.7435 97.8853 56.0421 86.7614 47.3666C77.9012 40.4568 80.3459 40.9555 55.3351 40.9555C34.4776 40.9555 33.8526 40.9837 29.2785 42.1314C26.6276 42.7966 24.4187 43.1189 24.1925 42.8728C23.9727 42.634 22.9334 38.9908 21.883 34.7771C20.1221 27.712 19.828 26.9716 18.1033 25.2624C16.451 23.6244 15.9487 23.4094 13.7861 23.4124C12.2364 23.4144 10.8109 23.7574 9.90078 24.3471ZM11.0869 27.8574C10.5338 28.4011 10.0813 29.4108 10.0813 30.1013C10.0813 31.4828 14.3055 48.5381 15.1895 50.7272C16.0488 52.8545 18.4176 54.5464 20.5535 54.5578C21.5692 54.5632 25.3987 53.8485 29.0633 52.9697C34.8935 51.5719 35.8136 51.4622 36.4226 52.0948C36.8706 52.5604 37.8023 57.8827 39.0362 67.0282L40.9535 81.2384H42.7641C45.2873 81.2384 45.7815 81.9427 45.7815 85.5386V88.6524H57.095H68.4085V85.9013C68.4085 82.2289 68.9998 81.2384 71.1916 81.2384C72.15 81.2384 72.9379 81.0714 72.9434 80.8677C73.0193 77.8912 76.0342 54.7624 76.3923 54.4105C77.24 53.5771 79.1185 54.4475 82.1304 57.0711C86.873 61.2022 87.2039 62.1646 87.4251 72.4651L87.6132 81.2384H91.0842H94.5551L94.5431 71.7237C94.5305 61.6757 94.2047 59.1238 92.6706 57.0573C91.4462 55.4089 80.8261 46.9233 78.2135 45.5062C76.25 44.4411 75.7305 44.4119 56.3408 44.2607L36.4794 44.1055L29.6234 45.6945C25.8523 46.5684 22.4401 47.16 22.0404 47.0093C21.5763 46.8338 20.5118 43.5657 19.0918 37.9543C17.8695 33.1248 16.4571 28.6546 15.9527 28.021C14.8043 26.5767 12.4697 26.4981 11.0869 27.8574ZM78.9637 59.0966C78.9617 59.1772 78.399 63.9143 77.7137 69.6231C77.0278 75.3319 76.4642 80.281 76.4601 80.6206C76.4556 81.0605 77.5397 81.2384 80.2247 81.2384H83.9959V73.427C83.9959 66.0629 83.9235 65.4762 82.7323 63.1709C82.0374 61.8265 80.9061 60.3264 80.2182 59.838C79.5303 59.3497 78.9662 59.0161 78.9637 59.0966ZM10.0813 86.6754V88.6524H26.1716H42.2618V86.6754V84.6983H26.1716H10.0813V86.6754ZM71.9282 86.6754V88.6524H88.0185H104.109V86.6754V84.6983H88.0185H71.9282V86.6754ZM102.64 91.4945C102.608 91.9843 92.3382 92.1123 53.0724 92.1123H3.54463V96.3161V100.519L56.9693 100.394L110.394 100.268L110.542 96.6843C110.64 94.3019 110.893 93.0984 111.296 93.0935C111.671 93.0885 111.615 92.9027 111.148 92.6066C110.733 92.3432 108.772 92.1242 106.79 92.1197C104.384 92.1148 103.103 91.9072 102.933 91.4945C102.73 91.0002 102.672 91.0002 102.64 91.4945Z" fill="#058FA2"/>
</svg>
