<svg width="97" height="56" viewBox="0 0 97 56" fill="none" xmlns="http://www.w3.org/2000/svg">
<path fill-rule="evenodd" clip-rule="evenodd" d="M11.9459 2.57892C8.36202 11.2164 0 32.5676 0 33.0813C0 34.1792 10.5115 36.9872 12.9227 36.5336C14.0797 36.3161 15.8048 36.3097 16.7566 36.519C18.3061 36.8607 18.4422 37.0647 18.0573 38.4705C17.8212 39.334 17.8648 40.7375 18.1544 41.5893C18.6945 43.1764 21.5481 44.8206 22.6156 44.1595C22.9412 43.9577 23.6011 44.5565 24.0825 45.49C25.0582 47.3809 26.0344 47.912 28.5374 47.912C29.4706 47.912 30.234 48.154 30.234 48.4502C30.234 48.7464 30.9114 49.7959 31.7393 50.7825C32.7702 52.0116 33.7656 52.5766 34.8982 52.5766C35.9924 52.5766 36.6663 52.9392 36.8907 53.6494C37.4105 55.2913 39.7315 56.2825 41.9607 55.8143C44.3696 55.3076 45.9173 55.3076 50.1001 55.8131C52.9909 56.1624 53.4834 56.0708 54.1066 55.0703C54.6991 54.1193 55.2893 53.9753 57.6586 54.2033C60.775 54.5036 62.4152 53.5847 63.0111 51.2046C63.2896 50.0915 63.6501 49.9481 65.6874 50.1429C68.4864 50.4111 70.747 49.1522 71.2784 47.0299C71.5708 45.8608 72.004 45.5798 73.5116 45.5798C75.7943 45.5798 77.8764 43.5606 78.4328 40.8074C78.7741 39.1212 79.0811 38.8501 80.8358 38.681C81.9428 38.5749 83.201 38.1941 83.6325 37.835C84.0639 37.4758 86.1582 36.7382 88.2862 36.196C97.6157 33.8182 97.2401 33.985 96.8406 32.388C96.2197 29.9076 84.8645 1.59296 84.243 0.975498C83.3598 0.0985718 72.6779 5.86856 72.6779 7.22243C72.6779 8.96404 66.27 8.62703 59.7482 6.54317C56.6166 5.54205 51.8083 4.56133 48.2581 4.19867C42.9235 3.65409 41.0159 3.73514 33.1411 4.83829L24.1291 6.1012L19.1393 3.39229C16.395 1.90257 13.8303 0.683966 13.4408 0.683966C13.0506 0.683966 12.3779 1.5364 11.9459 2.57892ZM8.63181 17.784L3.01875 31.8778L6.30611 32.9011C8.11434 33.4643 10.1168 33.8579 10.7563 33.7757C13.2983 33.4503 22.0063 12.9184 21.4039 8.67134C21.2772 7.78042 20.1579 6.82479 17.7334 5.53972L14.2449 3.68965L8.63181 17.784ZM79.2009 5.70472C75.0518 8.0498 75.0024 8.2218 76.7106 14.3976C78.9125 22.3582 84.6377 33.9185 86.3779 33.9185C86.8471 33.9185 88.7717 33.4888 90.6549 32.9641L94.0783 32.0096L92.7143 28.4453C91.9637 26.4851 89.4298 20.1069 87.0832 14.2711L82.8161 3.66167L79.2009 5.70472ZM31.5073 7.67781C27.8903 8.25271 24.7733 8.88124 24.5802 9.07482C24.3872 9.2684 23.6255 11.8216 22.8871 14.7492C22.1493 17.6767 20.0957 23.0963 18.323 26.7924C16.5508 30.489 15.1693 33.5553 15.2542 33.6066C15.3385 33.6579 16.4066 33.992 17.627 34.3494C19.5533 34.9138 20.119 34.838 21.9144 33.7757C23.6145 32.7699 24.2738 32.6615 25.6123 33.1681C26.5082 33.5075 28.3955 33.6544 29.8066 33.4952C32.0736 33.2387 32.6184 33.4229 34.5022 35.0812C35.7924 36.2176 36.989 36.8204 37.5361 36.61C38.0326 36.4187 39.3228 36.6327 40.4025 37.0852C42.8317 38.1032 44.4091 40.9112 43.8881 43.2901C43.6823 44.2288 43.7474 44.9967 44.0323 44.9967C44.3172 44.9967 45.1231 45.532 45.8225 46.1856C46.7598 47.0608 47.0953 48.0514 47.0953 49.9411C47.0953 52.8343 47.1511 52.8984 50.1524 53.4634C53.4101 54.0762 53.0066 52.6354 48.5488 47.7377C46.4702 45.4538 44.7696 43.2621 44.7696 42.8674C44.7696 40.8535 46.5214 41.8628 51.4658 46.7255C56.0689 51.2524 57.1597 52.0489 58.5377 51.8897C60.279 51.6891 60.8151 50.5434 60.2406 48.2496C60.0592 47.5243 57.0167 44.3507 53.4799 41.1969C47.5406 35.9015 46.2615 34.0993 48.0255 33.5104C48.3767 33.3926 51.9089 36.2263 55.8747 39.8075C59.8401 43.3881 63.671 46.7051 64.3885 47.1791C66.27 48.4222 68.6079 47.7091 68.6079 45.8929C68.6079 43.9396 67.0317 42.2762 59.3051 36.0765C52.9781 30.9997 51.499 29.1584 53.4909 28.8383C53.9706 28.7614 58.4185 31.9653 63.3751 35.9581C68.3317 39.9509 72.8046 43.2242 73.3145 43.2324C74.6146 43.2534 76.1664 41.3707 76.1664 39.7719C76.1664 37.2945 73.9239 34.7541 67.6236 30.0937C64.1815 27.5474 59.5406 24.0811 57.3109 22.3914C53.2293 19.2977 49.6582 17.7362 48.0657 18.349C47.5924 18.5309 47.0371 19.4452 46.8325 20.3804C46.3976 22.3652 43.4439 25.4157 41.0979 26.3032C35.8546 28.2856 31.2218 24.6817 33.965 20.7547C34.4179 20.1058 35.1842 18.0552 35.668 16.1975C36.6744 12.333 37.5233 11.2217 41.5642 8.48127L44.4632 6.5146L41.2735 6.57407C39.5187 6.60672 35.1238 7.10349 31.5073 7.67781ZM43.8649 10.1587C39.7199 12.9061 39.1699 13.4886 38.5012 15.8436C38.0913 17.2867 37.2355 19.5017 36.5988 20.7658C35.5767 22.7943 35.5418 23.1657 36.3011 23.9266C37.0175 24.6455 37.5477 24.6729 39.4804 24.0922C41.9933 23.3371 44.0294 21.2054 44.5259 18.8102C45.1277 15.9089 45.5603 15.5859 48.5977 15.7736C50.1692 15.8704 52.2583 16.2861 53.2397 16.6972C55.8387 17.7864 75.4344 32.595 76.8909 34.5716C77.8258 35.8392 78.6055 36.2508 80.073 36.2508C81.2242 36.2508 82.1475 35.9103 82.3371 35.4153C82.5126 34.9558 81.2463 31.742 79.5224 28.2727C77.799 24.8041 75.628 19.4073 74.6983 16.2809L73.0081 10.596H68.5288C65.0374 10.596 62.9588 10.21 59.1075 8.84685C51.6821 6.21898 49.5303 6.40381 43.8649 10.1587ZM22.0673 36.7709C20.0073 38.8373 19.8928 41.0995 21.8353 41.3782C24.1825 41.7153 26.5257 37.1784 24.7622 35.7109C24.0104 35.0852 23.5796 35.2549 22.0673 36.7709ZM29.5404 36.063C28.999 36.2065 28.2479 37.291 27.8711 38.4734C27.4943 39.6565 26.9565 40.8727 26.6751 41.1777C25.671 42.2657 26.1059 44.8994 27.3554 45.2976C28.927 45.7979 31.0212 44.3746 32.8975 41.5316C34.122 39.6763 34.2784 39.0419 33.7551 38.0612C33.201 37.0228 31.2521 35.5348 30.7084 35.7354C30.6073 35.7727 30.0817 35.9202 29.5404 36.063ZM36.6296 39.9958C36.6296 40.4523 35.6796 42.0738 34.5191 43.5985C32.7725 45.8929 32.4969 46.62 32.9202 47.81C33.7661 50.1889 35.1674 50.6944 37.0448 49.2997C40.5851 46.6695 42.4392 41.7269 40.5833 39.8658C39.5903 38.8699 36.6296 38.9673 36.6296 39.9958ZM40.881 49.2974C39.0298 51.0104 38.7699 51.5212 39.3054 52.3999C40.2234 53.9059 41.97 53.9806 43.4724 52.5766C44.9486 51.1976 45.1702 48.9715 43.9335 47.9424C43.2584 47.3803 42.6712 47.6409 40.881 49.2974Z" fill="white"/>
</svg>
