<svg width="92" height="87" viewBox="0 0 92 87" fill="none" xmlns="http://www.w3.org/2000/svg">
<mask id="path-1-inside-1_2426_3982" fill="white">
<path fill-rule="evenodd" clip-rule="evenodd" d="M5.94654 0.452905C3.67498 1.18948 1.1337 3.93461 0.46443 6.37519C0.0400386 7.92112 -0.065829 15.7778 0.0358961 38.1722L0.171222 67.9153L1.55211 69.8895C2.31159 70.9752 3.84575 72.3491 4.96151 72.942L6.99048 74.0207L32.5792 74.029L58.1683 74.0369L65.5261 80.5187C69.5726 84.0834 73.208 87 73.6043 87C75.167 87 75.4294 85.9862 75.4294 79.9541V74.0207L80.1474 74.0105C85.2806 73.9993 87.6318 73.292 89.5613 71.1782C92.0382 68.465 92 69.0056 92 36.8182V7.00283L90.9643 4.94051C90.359 3.73528 89.0996 2.29829 87.9328 1.48152L85.9374 0.0848491L46.7365 0.0111449C19.0447 -0.041236 7.06919 0.0885569 5.94654 0.452905ZM7.07564 4.00368C6.56931 4.21459 5.63722 4.94839 5.00431 5.63398L3.85358 6.88045L3.71411 36.3945C3.58476 63.7814 3.63264 66.0198 4.38107 67.4508C5.918 70.3906 5.11248 70.3114 33.6346 70.3197L59.5492 70.3276L65.533 75.606L71.5169 80.8844L71.747 76.0436C71.9187 72.433 72.1525 71.0915 72.6676 70.7647C73.0473 70.5237 75.8022 70.3234 78.7895 70.3192C84.8695 70.3114 86.4553 69.8135 87.6193 67.5463C88.6702 65.4993 88.6702 8.37447 87.6193 6.32744C86.1363 3.43908 87.9489 3.55867 46.1086 3.59066C25.1468 3.60688 7.58196 3.79276 7.07564 4.00368ZM44.1293 9.12402V10.9782H46.7512H49.373L47.7868 12.6456C45.6686 14.8729 41.3271 17.9578 37.8219 19.7267C32.7292 22.2967 27.5371 23.5672 21.023 23.837L15.1773 24.079L14.8901 25.3973C14.7317 26.1228 14.7336 26.9298 14.8937 27.1912C15.0608 27.4629 17.0907 27.6631 19.6458 27.6599C30.2768 27.6455 41.5416 23.4022 48.7212 16.7086L51.4941 14.1234V16.2589V18.395H53.3352H55.1764V13.3887C55.1764 10.1128 54.9854 8.18998 54.6241 7.82609C54.2627 7.46221 52.3534 7.26983 49.1005 7.26983H44.1293V9.12402ZM66.9466 11.7064C66.3119 12.3461 66.2235 14.841 66.2235 32.1025V51.7704H64.3823H62.5411V46.6876C62.5411 40.7445 62.4661 40.6453 57.9686 40.6453H55.1764V33.7847C55.1764 29.0668 55.0038 26.7504 54.6241 26.368C53.8719 25.6106 45.4338 25.6106 44.6817 26.368C44.302 26.7504 44.1293 29.0668 44.1293 33.7847V40.6453H42.2882H40.447V37.4931C40.447 35.6593 40.2159 34.1083 39.8946 33.7847C39.1425 33.0273 30.7044 33.0273 29.9523 33.7847C29.5619 34.1778 29.3999 36.8956 29.3999 43.0557V51.7704H27.5587H25.7176V46.9361C25.7176 40.7556 25.6237 40.6453 20.3611 40.6453C14.2512 40.6453 14.6705 39.79 14.6705 52.2502V62.8955H16.5117H18.3529V53.6246V44.3536H20.194H22.0352V53.6246V62.8955H23.8764H25.7176V59.1872V55.4788H27.5587H29.3999V59.1872V62.8955H31.2411H33.0823V49.9162V36.9369H34.9235H36.7646V49.9162V62.8955H38.6058H40.447V53.6246V44.3536H42.2882H44.1293V53.6246V62.8955H45.9705H47.8117V46.2078V29.5201H49.6529H51.4941V46.2078V62.8955H53.3352H55.1764V53.6246V44.3536H57.0176H58.8588V53.6246V62.8955H60.6999H62.5411V59.1872V55.4788H64.3823H66.2235V59.1872V62.8955H68.0647H69.9058V38.7911V14.6866H71.747H73.5882V38.7911V62.8955H75.4294H77.2705V37.4931C77.2705 18.3537 77.1343 11.9535 76.7182 11.5345C75.84 10.65 67.8561 10.7905 66.9466 11.7064Z"/>
</mask>
<path fill-rule="evenodd" clip-rule="evenodd" d="M5.94654 0.452905C3.67498 1.18948 1.1337 3.93461 0.46443 6.37519C0.0400386 7.92112 -0.065829 15.7778 0.0358961 38.1722L0.171222 67.9153L1.55211 69.8895C2.31159 70.9752 3.84575 72.3491 4.96151 72.942L6.99048 74.0207L32.5792 74.029L58.1683 74.0369L65.5261 80.5187C69.5726 84.0834 73.208 87 73.6043 87C75.167 87 75.4294 85.9862 75.4294 79.9541V74.0207L80.1474 74.0105C85.2806 73.9993 87.6318 73.292 89.5613 71.1782C92.0382 68.465 92 69.0056 92 36.8182V7.00283L90.9643 4.94051C90.359 3.73528 89.0996 2.29829 87.9328 1.48152L85.9374 0.0848491L46.7365 0.0111449C19.0447 -0.041236 7.06919 0.0885569 5.94654 0.452905ZM7.07564 4.00368C6.56931 4.21459 5.63722 4.94839 5.00431 5.63398L3.85358 6.88045L3.71411 36.3945C3.58476 63.7814 3.63264 66.0198 4.38107 67.4508C5.918 70.3906 5.11248 70.3114 33.6346 70.3197L59.5492 70.3276L65.533 75.606L71.5169 80.8844L71.747 76.0436C71.9187 72.433 72.1525 71.0915 72.6676 70.7647C73.0473 70.5237 75.8022 70.3234 78.7895 70.3192C84.8695 70.3114 86.4553 69.8135 87.6193 67.5463C88.6702 65.4993 88.6702 8.37447 87.6193 6.32744C86.1363 3.43908 87.9489 3.55867 46.1086 3.59066C25.1468 3.60688 7.58196 3.79276 7.07564 4.00368ZM44.1293 9.12402V10.9782H46.7512H49.373L47.7868 12.6456C45.6686 14.8729 41.3271 17.9578 37.8219 19.7267C32.7292 22.2967 27.5371 23.5672 21.023 23.837L15.1773 24.079L14.8901 25.3973C14.7317 26.1228 14.7336 26.9298 14.8937 27.1912C15.0608 27.4629 17.0907 27.6631 19.6458 27.6599C30.2768 27.6455 41.5416 23.4022 48.7212 16.7086L51.4941 14.1234V16.2589V18.395H53.3352H55.1764V13.3887C55.1764 10.1128 54.9854 8.18998 54.6241 7.82609C54.2627 7.46221 52.3534 7.26983 49.1005 7.26983H44.1293V9.12402ZM66.9466 11.7064C66.3119 12.3461 66.2235 14.841 66.2235 32.1025V51.7704H64.3823H62.5411V46.6876C62.5411 40.7445 62.4661 40.6453 57.9686 40.6453H55.1764V33.7847C55.1764 29.0668 55.0038 26.7504 54.6241 26.368C53.8719 25.6106 45.4338 25.6106 44.6817 26.368C44.302 26.7504 44.1293 29.0668 44.1293 33.7847V40.6453H42.2882H40.447V37.4931C40.447 35.6593 40.2159 34.1083 39.8946 33.7847C39.1425 33.0273 30.7044 33.0273 29.9523 33.7847C29.5619 34.1778 29.3999 36.8956 29.3999 43.0557V51.7704H27.5587H25.7176V46.9361C25.7176 40.7556 25.6237 40.6453 20.3611 40.6453C14.2512 40.6453 14.6705 39.79 14.6705 52.2502V62.8955H16.5117H18.3529V53.6246V44.3536H20.194H22.0352V53.6246V62.8955H23.8764H25.7176V59.1872V55.4788H27.5587H29.3999V59.1872V62.8955H31.2411H33.0823V49.9162V36.9369H34.9235H36.7646V49.9162V62.8955H38.6058H40.447V53.6246V44.3536H42.2882H44.1293V53.6246V62.8955H45.9705H47.8117V46.2078V29.5201H49.6529H51.4941V46.2078V62.8955H53.3352H55.1764V53.6246V44.3536H57.0176H58.8588V53.6246V62.8955H60.6999H62.5411V59.1872V55.4788H64.3823H66.2235V59.1872V62.8955H68.0647H69.9058V38.7911V14.6866H71.747H73.5882V38.7911V62.8955H75.4294H77.2705V37.4931C77.2705 18.3537 77.1343 11.9535 76.7182 11.5345C75.84 10.65 67.8561 10.7905 66.9466 11.7064Z" fill="#249DAE" stroke="white" stroke-width="1.2" mask="url(#path-1-inside-1_2426_3982)"/>
</svg>
