<svg width="79" height="86" viewBox="0 0 79 86" fill="none" xmlns="http://www.w3.org/2000/svg">
<path fill-rule="evenodd" clip-rule="evenodd" d="M38.1869 0.151017C37.5616 0.341718 32.0196 3.86127 21.525 10.7324C16.173 14.2364 4.81471 21.527 4.10583 21.9132C2.83868 22.6034 2.50696 23.4427 2.50696 25.9574C2.50696 28.31 2.84054 29.2211 3.93719 29.8633C4.30644 30.0795 4.66475 30.3389 4.73325 30.4398C4.80192 30.5406 4.85948 33.7175 4.86116 37.4994C4.86436 44.1716 4.87496 44.3946 5.21998 45.011C5.65353 45.7859 5.72085 44.9584 4.19216 57.6254C3.15576 66.2129 3.05377 67.3259 3.25439 67.8492C3.58476 68.7107 4.14403 69.192 4.97191 69.3272L5.70469 69.4469V70.5264V71.6057H4.62537C2.43426 71.6057 0.590345 73.2406 0.145019 75.5783C0.0240101 76.2128 -0.0268181 77.6856 0.0137426 79.3815C0.0686089 81.6799 0.138454 82.2892 0.42524 82.9744C0.919373 84.1548 1.58231 84.9365 2.57092 85.5047L3.43262 86H39.5333H75.634L76.4755 85.5128C77.4715 84.9363 78.0607 84.2839 78.6028 83.1578C78.9807 82.3726 79 82.1592 79 78.757V75.1813L78.5057 74.2091C77.9829 73.1812 76.8959 72.1816 75.9034 71.8162C75.5887 71.7005 74.8125 71.6057 74.1783 71.6057H73.0253V70.5297V69.4535L73.7049 69.3543C74.5878 69.2252 75.1612 68.8033 75.4975 68.035C75.7563 67.4433 75.7109 66.9362 74.4663 56.5236L73.1641 45.631L73.5997 44.932L74.0351 44.2328V37.3047V30.3765L74.5834 30.1794C75.2928 29.9243 76.0308 29.1718 76.3259 28.4024C76.6889 27.4558 76.634 24.2181 76.239 23.2703C75.9164 22.4965 75.2777 21.8829 74.54 21.6385C74.1787 21.5188 66.1793 16.4756 58.9721 11.824C57.7688 11.0472 54.7393 9.10813 52.2401 7.51467C39.482 -0.619126 40.8152 0.176505 39.6814 0.0210094C39.276 -0.0345509 38.6034 0.0239432 38.1869 0.151017ZM38.271 3.0385C37.581 3.44704 36.7649 3.97624 20.2353 14.7342C14.9439 18.178 10.4944 21.0459 10.3476 21.1073C10.2007 21.1687 10.0805 21.2927 10.0805 21.3827C10.0805 21.4766 13.7036 21.5465 18.5772 21.5465H27.0738L26.9689 20.4538C26.6572 17.204 28.3236 13.909 31.0075 12.4683C33.584 11.0852 36.737 11.3815 38.9417 13.2137L39.5333 13.7051L40.1249 13.2137C41.03 12.4614 42.3904 11.8486 43.5328 11.6784C48.3626 10.9587 52.3951 15.0142 52.1285 20.3234L52.0718 21.4548L60.5641 21.5023C65.7562 21.5314 68.9938 21.4841 68.895 21.3807C68.8063 21.2876 66.7645 19.9547 64.3578 18.4184C61.9511 16.8823 58.9216 14.9456 57.6257 14.1146C44.2735 5.55209 39.878 2.79792 39.4491 2.72531C39.1255 2.67066 38.7026 2.78307 38.271 3.0385ZM33.2614 14.4113C30.3102 15.1688 28.7787 18.4081 29.745 21.8492C29.9389 22.54 30.3841 23.6407 30.7342 24.2953C31.6999 26.1011 34.3496 28.8923 36.7493 30.6314C39.4697 32.6031 39.5984 32.6044 42.2332 30.6859C47.2381 27.0416 49.8635 22.9703 49.5912 19.2753C49.4434 17.2694 48.3252 15.5238 46.6947 14.7536C44.6985 13.8108 42.9655 14.2021 40.8383 16.0757C40.5027 16.3713 40.1521 16.4828 39.558 16.4828C38.8453 16.4828 38.6051 16.3722 37.6927 15.6252C36.1669 14.3754 34.8291 14.009 33.2614 14.4113ZM5.24186 24.235C5.09561 24.2994 5.03148 24.8262 5.03148 25.9625V27.5976H17.403H29.7743L29.1158 26.5432C28.7534 25.9634 28.3222 25.1795 28.1576 24.8012L27.8582 24.1136L16.6552 24.1281C10.4935 24.136 5.35765 24.1842 5.24186 24.235ZM51.012 24.6923C50.8544 25.0106 50.4039 25.7945 50.0112 26.4343L49.297 27.5976H61.6661H74.0351V25.9669C74.0351 24.649 73.9841 24.3149 73.7689 24.2249C73.6224 24.1637 68.5067 24.1136 62.4008 24.1136H51.2988L51.012 24.6923ZM7.2194 36.6946V43.0413L7.85053 42.9128C8.76879 42.7259 11.0375 41.8452 12.0725 41.2737C15.7247 39.2573 18.7095 35.925 20.663 31.6828C20.952 31.0553 21.1884 30.4983 21.1884 30.4451C21.1884 30.3917 18.0454 30.3481 14.2039 30.3481H7.2194V36.6946ZM23.5975 31.1274C23.1138 32.4693 21.8904 34.9187 21.0149 36.2984C20.164 37.6397 18.2105 39.9622 17.1706 40.8691L16.6031 41.3642L16.8023 42.5033C16.9119 43.1297 17.6785 47.402 18.5059 51.997C19.3334 56.5921 20.0103 60.7007 20.0103 61.1268C20.0103 62.108 19.5455 63.1064 18.7019 63.9367C17.7795 64.8448 16.7475 65.2368 15.4842 65.1592C14.5954 65.1048 14.4559 65.1396 14.456 65.4165C14.4562 65.5927 14.1913 66.0566 13.8673 66.4472L13.2783 67.1576V69.3816V71.6057H19.842H26.4058V70.5972V69.5886L25.7746 69.5806C24.3466 69.5624 22.9603 68.6316 22.3891 67.3081C22.0488 66.5189 22.0299 66.2026 22.0299 61.2594C22.0299 58.0461 22.0981 55.8451 22.2077 55.5271C22.5291 54.5936 23.2569 53.6199 23.9772 53.1601L24.6859 52.7075L24.7547 50.742C24.8088 49.1971 24.8998 48.6175 25.1804 48.0333C25.6476 47.0603 26.4563 46.2143 27.4063 45.7042L28.1729 45.2925H39.1967C50.0622 45.2925 50.2314 45.298 50.9778 45.6796C51.3943 45.8925 52.0063 46.3573 52.3378 46.7127C53.3243 47.77 53.5744 48.5273 53.6418 50.6615L53.7016 52.5463L54.5007 52.9875C54.9401 53.2303 55.531 53.7158 55.8138 54.0666C56.729 55.2024 56.7842 55.6157 56.7842 61.3371C56.7842 66.3372 56.7685 66.5948 56.4218 67.2966C55.7719 68.6126 54.8061 69.3086 53.2999 69.5467L52.4084 69.6877V70.6008V71.514H58.9721H65.5359L65.5835 69.3299L65.6311 67.146L65.0475 66.6218C64.7036 66.313 64.4419 65.8969 64.4108 65.6094C64.3586 65.1288 64.3401 65.122 63.2062 65.1678C62.2525 65.2064 61.9009 65.1325 61.1595 64.7371C59.6933 63.9556 58.7242 62.4883 58.7207 61.0447C58.7202 60.8334 59.4767 56.4601 60.4018 51.3262C61.327 46.1923 62.0844 41.8511 62.0849 41.6789C62.0854 41.5069 61.3798 40.6221 60.5173 39.713C59.6547 38.8037 58.4997 37.3809 57.9507 36.5514C56.9843 35.0911 55.017 31.0968 55.017 30.5949C55.017 30.3948 54.2418 30.3481 50.9212 30.3481H46.8255L45.746 31.2957C44.4007 32.4766 42.1144 34.1143 41.267 34.5037C40.8955 34.6746 40.1506 34.799 39.4904 34.8004C38.5423 34.8024 38.1788 34.7058 37.3025 34.2193C36.2312 33.6245 33.7516 31.7633 32.8167 30.8523L32.2992 30.3481H28.089H23.8786L23.5975 31.1274ZM58.1468 31.6775C60.1753 36.1025 63.4868 39.7092 67.1777 41.5133C68.3726 42.0975 70.8556 43.0004 71.2669 43.0004C71.4749 43.0004 71.5106 42.0751 71.5106 36.6743V30.3481H64.5239H57.5373L58.1468 31.6775ZM13.7349 43.4755C13.2724 43.7487 13.2672 43.7713 13.3639 45.0727C13.5326 47.3378 14.2881 60.428 14.2881 61.0822C14.2881 61.9703 14.7768 62.4373 15.7057 62.4373C16.6636 62.4373 17.4858 61.7519 17.4858 60.9532C17.4858 60.6592 17.0788 58.1704 16.5815 55.4226C16.0842 52.6749 15.3867 48.7972 15.0316 46.8053C14.6765 44.8134 14.3451 43.1871 14.295 43.1911C14.2448 43.1952 13.9929 43.3231 13.7349 43.4755ZM64.3763 43.5061C64.3281 43.6818 63.5935 47.688 62.7439 52.4086C61.0796 61.6551 61.0894 61.528 61.9946 62.1742C62.2311 62.3431 62.7377 62.4758 63.1234 62.47C64.4441 62.4502 64.3663 62.8517 64.9401 53.0968C65.2215 48.3124 65.4517 44.2506 65.4517 44.0705C65.4517 43.8907 65.2294 43.618 64.9578 43.4651C64.5044 43.2096 64.4566 43.2129 64.3763 43.5061ZM9.49147 45.2327C8.84351 45.4361 8.2654 45.6565 8.20666 45.7225C8.02843 45.9231 5.63804 66.46 5.77554 66.6084C5.84606 66.6843 6.45986 66.7285 7.13963 66.7065C8.56127 66.6605 9.89893 66.2041 11.1247 65.3472L11.9675 64.7578L11.8756 63.9186C11.8251 63.4569 11.573 58.9741 11.3155 53.9566C11.058 48.9391 10.8074 44.8407 10.7584 44.8486C10.7096 44.8566 10.1394 45.0296 9.49147 45.2327ZM67.9079 46.063C67.6985 48.572 66.9478 63.5586 66.9984 64.2182C67.041 64.774 67.1733 64.9909 67.7238 65.4081C68.6562 66.1148 70.4627 66.6911 71.8403 66.7211C72.4753 66.7351 73.032 66.7052 73.0773 66.6548C73.1227 66.6043 72.602 61.9422 71.9202 56.2945C71.2384 50.6468 70.678 45.9411 70.6748 45.8373C70.6716 45.7337 70.1578 45.4993 69.533 45.3165C68.9083 45.1337 68.3103 44.9465 68.2045 44.9005C68.0769 44.8447 67.9769 45.2366 67.9079 46.063ZM28.4952 48.2104C27.5068 48.6822 27.2466 49.2767 27.2528 51.0475L27.2586 52.6272L28.1315 53.1773C28.7235 53.5503 29.1686 54.0177 29.5143 54.6288C29.9946 55.4782 30.027 55.6537 30.0705 57.6544C30.0961 58.8226 30.1544 59.9641 30.2 60.1911L30.2831 60.6037H34.153H38.023L37.9787 54.3233L37.9344 48.043L33.4744 48.0029C30.0301 47.9717 28.8961 48.019 28.4952 48.2104ZM40.5431 54.2808V60.6103L44.5403 60.5611L48.5374 60.512L48.6307 58.1282C48.682 56.8171 48.8192 55.4969 48.9353 55.1943C49.1953 54.517 50.222 53.3341 50.8719 52.9626C51.3545 52.687 51.355 52.6848 51.2802 51.19C51.1917 49.4219 50.8829 48.6681 50.0762 48.2511C49.5848 47.997 48.8144 47.9513 45.0198 47.9513H40.5431V54.2808ZM24.9676 55.7362C24.7404 55.9837 24.5534 56.3343 24.5523 56.5155C24.5467 57.3916 24.5434 65.5034 24.5486 65.7838C24.5518 65.9602 24.7059 66.2697 24.8911 66.4714C25.2223 66.8323 25.452 66.8381 39.3726 66.8381H53.5176L53.9386 66.3795L54.3595 65.9209L54.3097 61.0458L54.2597 56.1706L53.7874 55.7283C53.1248 55.1076 52.181 55.1254 51.5897 55.7694C51.1624 56.2351 51.1458 56.331 51.1387 58.3824C51.1283 61.3822 50.7752 62.3108 49.3789 63.0093C48.7513 63.3234 48.0726 63.3461 39.365 63.3461C30.6152 63.3461 29.9807 63.3245 29.3344 63.0049C28.955 62.8171 28.4628 62.3856 28.2404 62.0462C27.8756 61.4888 27.8278 61.1886 27.7483 58.9534C27.6584 56.4236 27.5147 55.8216 26.9179 55.4736C26.3255 55.1281 25.4128 55.251 24.9676 55.7362ZM10.0805 68.8598C9.84912 68.9472 9.33798 69.109 8.94449 69.2192L8.22921 69.4194V70.5126V71.6057H9.49147H10.7537V70.1387C10.7537 69.3319 10.6968 68.6784 10.6275 68.6863C10.5582 68.6942 10.3119 68.7723 10.0805 68.8598ZM68.0109 70.0781L68.0604 71.514L69.2888 71.5681L70.5173 71.6222L70.4669 70.4811L70.4166 69.34L69.5751 69.1295C69.1123 69.0136 68.5599 68.8566 68.3475 68.7805C67.9646 68.643 67.9619 68.6531 68.0109 70.0781ZM28.9303 70.5972V71.6057H39.4491H49.968V70.5972V69.5886H39.4491H28.9303V70.5972ZM3.4757 74.678C2.66096 75.2283 2.50696 75.8814 2.5073 78.7847C2.50747 81.811 2.69378 82.4804 3.68507 83.0199C4.2403 83.3221 6.30553 83.3406 39.6174 83.3403C74.3747 83.3399 74.9697 83.3338 75.4995 82.9818C76.4253 82.3669 76.5596 81.8434 76.5596 78.852C76.5596 75.8288 76.3895 75.1043 75.5714 74.6433C75.1132 74.3853 71.4569 74.3567 39.4996 74.3611C6.31428 74.3655 3.90673 74.3868 3.4757 74.678Z" fill="#058FA2"/>
</svg>
