<svg width="115" height="115" viewBox="0 0 115 115" fill="none" xmlns="http://www.w3.org/2000/svg">
<path fill-rule="evenodd" clip-rule="evenodd" d="M0.707727 1.012C0.0799996 1.90928 0 6.61009 0 42.5791C0 76.8806 0.0995457 83.2712 0.645 84.0187C1.26727 84.8714 2.13545 84.9069 25.4436 85.028L49.5977 85.1532L49.3136 87.3042C49.1573 88.4869 48.6359 90.8127 48.1545 92.4725L47.28 95.4908L45.1173 96.0284C42.4223 96.6985 38.5227 98.4526 36.9177 99.7168C33.8859 102.105 33.2255 105.495 35.2195 108.434C36.6432 110.532 41.3868 112.978 46.2482 114.12C51.2414 115.293 64.2132 115.293 69.2064 114.12C76.8645 112.321 81.3673 108.92 81.3605 104.941C81.3545 101.159 78.1582 98.4462 71.1705 96.2916L68.0227 95.321L67.2423 92.5495C66.8132 91.0253 66.3186 88.7323 66.1427 87.454L65.8236 85.13H89.2459C103.365 85.13 113.131 84.9538 113.834 84.6861L115 84.2422V42.5923C115 1.88014 114.98 0.931877 114.121 0.471174C113.528 0.153871 95.0014 0 57.3282 0H1.415L0.707727 1.012ZM4.54545 36.4192V68.2861H57.7273H110.909V36.4192V4.5524H57.7273H4.54545V36.4192ZM22.0777 12.0962C21.6809 12.4941 21.3636 13.5753 21.3636 14.5313C21.3636 16.0832 21.1945 16.3267 19.6277 17.0342C17.9882 17.7749 17.8014 17.7749 16.26 17.0387C15.3623 16.6104 14.3355 16.3718 13.9777 16.5093C13.1391 16.8316 8.18182 25.3396 8.18182 26.4568C8.18182 26.9266 8.89 27.7656 9.76727 28.3346C11.1541 29.2342 11.3532 29.5984 11.3582 31.2436C11.3627 32.8611 11.1409 33.2945 9.77273 34.3397C8.89773 35.008 8.18182 35.8902 8.18182 36.2995C8.18182 37.5883 13.1464 45.9069 14.0955 46.2083C14.61 46.3722 15.5805 46.1427 16.3827 45.6679C17.7432 44.863 17.815 44.8667 19.4564 45.8181C20.8227 46.6103 21.1818 47.1201 21.3795 48.5482C21.7805 51.4431 21.7786 51.4422 27.9259 51.4422C34.1436 51.4422 34.3886 51.337 34.625 48.5632C34.7495 47.1065 35.0432 46.6799 36.49 45.8545C38.1786 44.8917 38.2327 44.889 39.7605 45.7134C40.615 46.1741 41.63 46.4295 42.0159 46.2811C43.4514 45.7294 48.38 37.0106 47.9259 35.8256C47.7718 35.4241 46.9486 34.6834 46.0959 34.1795C44.7132 33.3623 44.5459 33.0523 44.5509 31.3133C44.5559 29.5884 44.74 29.2442 46.1418 28.3346C47.2223 27.6336 47.7273 26.9603 47.7273 26.2205C47.7273 24.7255 43.1909 16.9081 42.1273 16.5698C41.6523 16.4192 40.48 16.6495 39.5218 17.0824C37.85 17.8372 37.7191 17.8336 36.2764 16.9928C35.0391 16.2717 34.7468 15.7991 34.625 14.3237C34.3923 11.4935 34.145 11.381 28.1586 11.381C23.8859 11.381 22.6468 11.5267 22.0777 12.0962ZM91.9195 16.187L90.9091 16.8953V36.2176C90.9091 59.3706 90.3014 57.3603 97.3027 57.3603C99.8191 57.3603 102.274 57.1482 102.757 56.8891C103.606 56.4339 103.636 55.7251 103.636 36.4192C103.636 17.1134 103.606 16.4046 102.757 15.9493C101.308 15.1727 93.1091 15.3521 91.9195 16.187ZM25.9091 17.2286C25.9091 18.4691 24.7355 20.0306 23.8032 20.0306C23.5595 20.0306 22.3923 20.6452 21.2095 21.3963C19.0468 22.7702 17.1123 23.1513 16.5909 22.3068C16.0932 21.5001 15.5659 21.8151 14.5618 23.5191L13.5795 25.1866L14.8332 26.1877C16.0591 27.1665 16.0845 27.2835 15.975 31.4626C15.8632 35.7168 15.5986 36.4302 13.9127 37.017C13.1973 37.266 15.2873 40.7918 16.0145 40.5624C17.8959 39.9687 19.1977 40.017 19.9605 40.7081C20.4186 41.1237 21.8936 42.0187 23.2377 42.697C25.4723 43.8251 25.6941 44.0773 25.8227 45.6379C25.9623 47.325 25.9873 47.345 27.9241 47.345C29.8582 47.345 29.8877 47.3213 30.1741 45.5281C30.4227 43.9685 30.7045 43.6111 32.1636 43.0034C33.0986 42.6137 34.6264 41.7679 35.5582 41.1232C37.175 40.0052 38.15 39.9091 40 40.6853C40.4695 40.8829 40.9923 40.4263 41.6795 39.2176L42.6773 37.464L41.4182 36.5317C40.2 35.6294 40.1582 35.4582 40.1241 31.2286C40.0891 26.8879 40.0977 26.8528 41.3886 26.0894L42.6882 25.3205L41.7073 23.5723C41.0073 22.325 40.525 21.9116 40.0223 22.1301C38.0645 22.9796 36.8882 22.8185 34.9877 21.4396C33.9195 20.6647 32.7691 20.0306 32.4318 20.0306C31.4273 20.0306 30 18.2938 30 17.0715C30 16.0263 29.8332 15.9334 27.9545 15.9334C26.0095 15.9334 25.9091 15.9972 25.9091 17.2286ZM95.4546 36.4192V52.8079H97.5H99.5455V36.4192V20.0306H97.5H95.4546V36.4192ZM72.3741 23.0156L71.3636 23.7239V39.7889C71.3636 54.7736 71.4195 55.904 72.195 56.6069C73.3582 57.6612 81.5932 57.6954 83.0805 56.6515L84.0909 55.9431V39.8335V23.7239L83.0805 23.0156C82.3373 22.4939 80.9227 22.3068 77.7273 22.3068C74.5318 22.3068 73.1173 22.4939 72.3741 23.0156ZM24.6545 24.6331C21.8973 26.0001 20.7491 27.8243 20.5441 31.1644C20.4023 33.472 20.5459 34.1653 21.4373 35.4669C23.1418 37.9552 24.6845 38.8452 27.6077 39.0264C29.7105 39.1561 30.5791 38.9827 32.0114 38.1451C35.9564 35.8388 37.0014 30.4233 34.1836 26.8888C31.6391 23.6966 28.1905 22.8804 24.6545 24.6331ZM75.9091 39.8335V52.8079H77.7273H79.5455V39.8335V26.8592H77.7273H75.9091V39.8335ZM25.8836 29.0644C24.6059 30.1005 24.5036 32.384 25.6764 33.6819C26.7691 34.891 29.25 34.8942 30.4545 33.6878C33.3005 30.8375 29.0273 26.515 25.8836 29.0644ZM51.8341 29.1053C51.5418 29.6525 51.3636 34.8259 51.3636 42.7626C51.3636 58.3973 50.9014 57.3603 57.8677 57.3603C61.195 57.3603 62.8096 57.1732 63.4359 56.7148C64.2673 56.1061 64.3259 55.3295 64.4523 43.2365C64.5677 32.1946 64.4868 30.2521 63.8736 29.3143C63.1877 28.2659 62.9568 28.2249 57.7327 28.2249C52.8314 28.2249 52.2591 28.3105 51.8341 29.1053ZM56.2336 32.6039C56.055 32.7828 55.9091 37.4016 55.9091 42.8686V52.8079H57.9632H60.0173L59.895 42.6788L59.7727 32.5497L58.1655 32.414C57.2818 32.3398 56.4123 32.425 56.2336 32.6039ZM9.43182 57.3967C8.51818 57.9298 8.36409 60.0922 9.18182 60.9112C9.58818 61.3182 14.3968 61.4575 28.0132 61.4575C44.0305 61.4575 46.3873 61.3687 47.0132 60.7423C47.9618 59.7917 47.9164 58.5831 46.8959 57.6585C46.1514 56.9838 44.1941 56.9064 28.1459 56.9187C16.8232 56.9278 9.93455 57.1035 9.43182 57.3967ZM4.54545 76.708V80.5776H57.7273H110.909V76.708V72.8385H57.7273H4.54545V76.708ZM53.8527 87.2924C53.3023 91.3454 52.1677 95.3679 50.62 98.7558C49.5232 101.156 49.215 102.28 49.5596 102.625C50.1941 103.261 65.2327 103.29 65.8618 102.657C66.1623 102.354 65.8591 101.252 64.9577 99.3735C63.5873 96.516 62.1259 91.2639 61.5964 87.2924L61.3077 85.13H57.7273H54.1468L53.8527 87.2924ZM41.2655 102.223C37.285 104.299 37.5609 105.965 42.2332 108.065C46.1345 109.819 51.0082 110.623 57.7273 110.623C64.8377 110.623 69.7091 109.753 73.6364 107.782C76.0523 106.569 76.6168 106.075 76.7323 105.072C76.8546 104.012 76.5459 103.656 74.4595 102.459C71.4977 100.757 70.5564 100.633 71.565 102.075C72.5718 103.515 72.4432 105.033 71.25 105.781C67.2645 108.282 48.19 108.282 44.2045 105.781C43.0114 105.033 42.8827 103.515 43.8895 102.075C44.8345 100.723 44.0577 100.767 41.2655 102.223Z" fill="#058FA2"/>
</svg>
