<svg width="56" height="62" viewBox="0 0 56 62" fill="none" xmlns="http://www.w3.org/2000/svg">
<path d="M53.497 1H2.60671C1.72077 1 1 1.72093 1 2.60671V39.3345C1 39.497 1.02468 39.6541 1.06993 39.802H1V60.7989H55.1036V39.802H55.0338C55.0789 39.6539 55.1036 39.497 55.1036 39.3345V30.1828V19.0453V2.60671C55.1036 1.72093 54.3828 1 53.497 1ZM2.13906 2.60671C2.13906 2.34884 2.34884 2.13906 2.60671 2.13906H27.094V7.90778H2.13906V2.60671ZM9.56512 12.8437C10.1234 12.8437 10.5776 13.2979 10.5776 13.8562V26.3464C10.5776 26.3682 10.5599 26.3859 10.5381 26.3859H8.59217C8.57034 26.3859 8.55262 26.368 8.55262 26.3464V13.8562C8.55262 13.2979 9.00682 12.8437 9.56512 12.8437ZM2.13906 9.04685H8.79435V11.8499C7.98815 12.1606 7.41356 12.9416 7.41356 13.8562V26.3464C7.41356 26.9963 7.94211 27.525 8.59217 27.525H10.5381C11.188 27.525 11.7167 26.9963 11.7167 26.3464V13.8562C11.7167 12.7956 10.9447 11.9141 9.93357 11.7385V9.04685H18.5082V11.7864C17.6034 12.0408 16.9375 12.8712 16.9375 13.8562V26.3464C16.9375 26.9963 17.4663 27.525 18.1162 27.525H20.0621C20.712 27.525 21.2407 26.9963 21.2407 26.3464V13.8562C21.2407 12.8632 20.5634 12.0274 19.6472 11.7806V9.04685H27.0942V19.0453L27.0936 30.1828L27.0942 39.802H22.2536C22.3712 39.5517 22.4389 39.2733 22.4389 38.9789C22.4389 38.6906 22.3742 38.4177 22.2612 38.1714H22.6906C23.764 38.1714 24.6373 37.298 24.6373 36.2247C24.6373 35.1515 23.764 34.278 22.6906 34.278H22.0326C22.1456 34.0316 22.2103 33.7588 22.2103 33.4706C22.2103 32.3972 21.3369 31.5239 20.2636 31.5239H7.95683C6.88342 31.5239 6.01014 32.3972 6.01014 33.4706C6.01014 34.5438 6.88342 35.4173 7.95683 35.4173H8.61479C8.50184 35.6636 8.43713 35.9365 8.43713 36.2247C8.43713 36.513 8.50184 36.7859 8.61479 37.0322H8.18543C7.11202 37.0322 6.23874 37.9056 6.23874 38.9789C6.23874 39.2733 6.30645 39.5517 6.42384 39.802H2.60671C2.34884 39.802 2.13906 39.5924 2.13906 39.3345V9.04685ZM19.0889 12.8437C19.6472 12.8437 20.1014 13.2979 20.1014 13.8562V26.3464C20.1014 26.3682 20.0837 26.3859 20.0619 26.3859H18.116C18.0942 26.3859 18.0764 26.368 18.0764 26.3464V13.8562C18.0764 13.2979 18.5306 12.8437 19.0889 12.8437ZM20.4922 37.0323H10.3837C9.93832 37.0323 9.57619 36.6701 9.57619 36.2249C9.57619 35.7795 9.93848 35.4174 10.3837 35.4174H20.2636H22.6904C23.1358 35.4174 23.4979 35.7795 23.4979 36.2249C23.4979 36.6701 23.1356 37.0323 22.6904 37.0323H20.4922ZM21.2998 38.9789C21.2998 39.4241 20.9376 39.7864 20.4924 39.7864H8.18559C7.74024 39.7864 7.37812 39.4241 7.37812 38.9789C7.37812 38.5337 7.7404 38.1714 8.18559 38.1714H10.384H20.4925C20.9376 38.1714 21.2998 38.5337 21.2998 38.9789ZM7.95683 34.278C7.51148 34.278 7.14936 33.9157 7.14936 33.4706C7.14936 33.0254 7.51164 32.6629 7.95683 32.6629H20.2636C20.7088 32.6629 21.0711 33.0254 21.0711 33.4706C21.0711 33.9157 20.7088 34.278 20.2636 34.278H10.3837H7.95683ZM53.9645 59.6598H2.13906V40.9414H2.60671H53.497H53.9645V59.6598ZM53.9645 39.3345C53.9645 39.5924 53.7549 39.802 53.497 39.802H28.2331V30.1828H53.9644L53.9645 39.3345ZM53.9645 29.0437H28.2331V20.1843H53.9644L53.9645 29.0437ZM53.9645 19.0453H28.2331V2.13906H53.4969C53.7547 2.13906 53.9644 2.34884 53.9644 2.60671L53.9645 19.0453Z" stroke="#058FA2" stroke-width="1.2" stroke-miterlimit="3.8637"/>
<path d="M30.3844 49.7305H25.1953V50.8697H30.3844V49.7305Z" stroke="#FDC114" stroke-width="1.2" stroke-miterlimit="3.8637"/>
<rect x="6" y="44" width="45" height="13" stroke="#FDC114" stroke-width="2"/>
</svg>
